# MagicaVoxel @ ephtracy

# material
mtllib Battleship.mtl
usemtl palette

# normals
vn -1 0 0
vn 1 0 0
vn 0 0 1
vn 0 0 -1
vn 0 -1 0
vn 0 1 0

# texcoords
vt 0.751953 0.5
vt 0.779297 0.5
vt 0.982422 0.5
vt 0.986328 0.5

# verts
v -14.5 2 48.5
v -14.5 2 -49.5
v -14.5 5 48.5
v -14.5 5 -49.5
v -13.5 1 49.5
v -13.5 1 48.5
v -13.5 1 -49.5
v -13.5 2 49.5
v -13.5 2 48.5
v -13.5 2 -49.5
v -12.5 2 49.5
v -12.5 2 48.5
v -12.5 3 49.5
v -12.5 3 48.5
v -12.5 5 48.5
v -12.5 5 -48.5
v -12.5 6 48.5
v -12.5 6 -48.5
v -11.5 0 49.5
v -11.5 0 48.5
v -11.5 0 -49.5
v -11.5 1 49.5
v -11.5 1 48.5
v -11.5 1 -49.5
v -11.5 6 1.5
v -11.5 6 -47.5
v -11.5 7 1.5
v -11.5 7 -47.5
v -2.5 6 40.5
v -2.5 6 22.5
v -2.5 7 40.5
v -2.5 7 22.5
v -2.5 8 40.5
v -2.5 8 22.5
v 1.5 5 48.5
v 1.5 5 40.5
v 1.5 5 22.5
v 1.5 5 -48.5
v 1.5 6 48.5
v 1.5 6 40.5
v 1.5 6 39.5
v 1.5 6 23.5
v 1.5 6 22.5
v 1.5 6 -48.5
v 1.5 7 39.5
v 1.5 7 23.5
v 3.5 6 1.5
v 3.5 6 -47.5
v 3.5 7 1.5
v 3.5 7 -47.5
v -3.5 6 1.5
v -3.5 6 -47.5
v -3.5 7 1.5
v -3.5 7 -47.5
v -1.5 5 48.5
v -1.5 5 40.5
v -1.5 5 22.5
v -1.5 5 -48.5
v -1.5 6 48.5
v -1.5 6 40.5
v -1.5 6 39.5
v -1.5 6 23.5
v -1.5 6 22.5
v -1.5 6 -48.5
v -1.5 7 39.5
v -1.5 7 23.5
v 2.5 6 40.5
v 2.5 6 22.5
v 2.5 7 40.5
v 2.5 7 22.5
v 2.5 8 40.5
v 2.5 8 22.5
v 11.5 0 49.5
v 11.5 0 48.5
v 11.5 0 -49.5
v 11.5 1 49.5
v 11.5 1 48.5
v 11.5 1 -49.5
v 11.5 6 1.5
v 11.5 6 -47.5
v 11.5 7 1.5
v 11.5 7 -47.5
v 12.5 2 49.5
v 12.5 2 48.5
v 12.5 3 49.5
v 12.5 3 48.5
v 12.5 5 48.5
v 12.5 5 -48.5
v 12.5 6 48.5
v 12.5 6 -48.5
v 13.5 1 49.5
v 13.5 1 48.5
v 13.5 1 -49.5
v 13.5 2 49.5
v 13.5 2 48.5
v 13.5 2 -49.5
v 14.5 2 48.5
v 14.5 2 -49.5
v 14.5 5 48.5
v 14.5 5 -49.5
v -13.5 1 49.5
v -13.5 2 49.5
v -12.5 2 49.5
v -12.5 3 49.5
v -11.5 0 49.5
v -11.5 1 49.5
v 11.5 0 49.5
v 11.5 1 49.5
v 12.5 2 49.5
v 12.5 3 49.5
v 13.5 1 49.5
v 13.5 2 49.5
v -14.5 2 48.5
v -14.5 5 48.5
v -13.5 2 48.5
v -12.5 2 48.5
v -12.5 3 48.5
v -12.5 5 48.5
v -12.5 6 48.5
v -1.5 5 48.5
v -1.5 6 48.5
v 1.5 5 48.5
v 1.5 6 48.5
v 12.5 2 48.5
v 12.5 3 48.5
v 12.5 5 48.5
v 12.5 6 48.5
v 13.5 2 48.5
v 14.5 2 48.5
v 14.5 5 48.5
v -2.5 6 40.5
v -2.5 7 40.5
v -2.5 8 40.5
v -1.5 5 40.5
v -1.5 6 40.5
v 1.5 5 40.5
v 1.5 6 40.5
v 2.5 6 40.5
v 2.5 7 40.5
v 2.5 8 40.5
v -1.5 6 23.5
v -1.5 7 23.5
v 1.5 6 23.5
v 1.5 7 23.5
v -11.5 6 1.5
v -11.5 7 1.5
v -3.5 6 1.5
v -3.5 7 1.5
v 3.5 6 1.5
v 3.5 7 1.5
v 11.5 6 1.5
v 11.5 7 1.5
v -1.5 6 39.5
v -1.5 7 39.5
v 1.5 6 39.5
v 1.5 7 39.5
v -2.5 6 22.5
v -2.5 7 22.5
v -2.5 8 22.5
v -1.5 5 22.5
v -1.5 6 22.5
v 1.5 5 22.5
v 1.5 6 22.5
v 2.5 6 22.5
v 2.5 7 22.5
v 2.5 8 22.5
v -11.5 6 -47.5
v -11.5 7 -47.5
v -3.5 6 -47.5
v -3.5 7 -47.5
v 3.5 6 -47.5
v 3.5 7 -47.5
v 11.5 6 -47.5
v 11.5 7 -47.5
v -12.5 5 -48.5
v -12.5 6 -48.5
v -1.5 5 -48.5
v -1.5 6 -48.5
v 1.5 5 -48.5
v 1.5 6 -48.5
v 12.5 5 -48.5
v 12.5 6 -48.5
v -14.5 2 -49.5
v -14.5 5 -49.5
v -13.5 1 -49.5
v -13.5 2 -49.5
v -11.5 0 -49.5
v -11.5 1 -49.5
v 11.5 0 -49.5
v 11.5 1 -49.5
v 13.5 1 -49.5
v 13.5 2 -49.5
v 14.5 2 -49.5
v 14.5 5 -49.5
v -11.5 0 49.5
v 11.5 0 49.5
v -11.5 0 48.5
v 11.5 0 48.5
v -11.5 0 -49.5
v 11.5 0 -49.5
v -13.5 1 49.5
v -11.5 1 49.5
v 11.5 1 49.5
v 13.5 1 49.5
v -13.5 1 48.5
v -11.5 1 48.5
v 11.5 1 48.5
v 13.5 1 48.5
v -13.5 1 -49.5
v -11.5 1 -49.5
v 11.5 1 -49.5
v 13.5 1 -49.5
v -14.5 2 48.5
v -13.5 2 48.5
v 13.5 2 48.5
v 14.5 2 48.5
v -14.5 2 -49.5
v -13.5 2 -49.5
v 13.5 2 -49.5
v 14.5 2 -49.5
v -1.5 7 39.5
v 1.5 7 39.5
v -1.5 7 23.5
v 1.5 7 23.5
v -13.5 2 49.5
v -12.5 2 49.5
v 12.5 2 49.5
v 13.5 2 49.5
v -13.5 2 48.5
v -12.5 2 48.5
v 12.5 2 48.5
v 13.5 2 48.5
v -12.5 3 49.5
v 12.5 3 49.5
v -12.5 3 48.5
v 12.5 3 48.5
v -14.5 5 48.5
v -12.5 5 48.5
v -1.5 5 48.5
v 1.5 5 48.5
v 12.5 5 48.5
v 14.5 5 48.5
v -1.5 5 40.5
v 1.5 5 40.5
v -1.5 5 22.5
v 1.5 5 22.5
v -12.5 5 -48.5
v -1.5 5 -48.5
v 1.5 5 -48.5
v 12.5 5 -48.5
v -14.5 5 -49.5
v 14.5 5 -49.5
v -12.5 6 48.5
v -1.5 6 48.5
v 1.5 6 48.5
v 12.5 6 48.5
v -2.5 6 40.5
v -1.5 6 40.5
v 1.5 6 40.5
v 2.5 6 40.5
v -1.5 6 39.5
v 1.5 6 39.5
v -1.5 6 23.5
v 1.5 6 23.5
v -2.5 6 22.5
v -1.5 6 22.5
v 1.5 6 22.5
v 2.5 6 22.5
v -11.5 6 1.5
v -3.5 6 1.5
v 3.5 6 1.5
v 11.5 6 1.5
v -11.5 6 -47.5
v -3.5 6 -47.5
v 3.5 6 -47.5
v 11.5 6 -47.5
v -12.5 6 -48.5
v -1.5 6 -48.5
v 1.5 6 -48.5
v 12.5 6 -48.5
v -11.5 7 1.5
v -3.5 7 1.5
v 3.5 7 1.5
v 11.5 7 1.5
v -11.5 7 -47.5
v -3.5 7 -47.5
v 3.5 7 -47.5
v 11.5 7 -47.5
v -2.5 8 40.5
v 2.5 8 40.5
v -2.5 8 22.5
v 2.5 8 22.5

# faces
f 3/3/1 2/3/1 1/3/1
f 4/3/1 2/3/1 3/3/1
f 8/1/1 6/1/1 5/1/1
f 9/4/1 7/4/1 6/4/1
f 9/1/1 6/1/1 8/1/1
f 10/4/1 7/4/1 9/4/1
f 13/1/1 12/1/1 11/1/1
f 14/1/1 12/1/1 13/1/1
f 17/3/1 16/3/1 15/3/1
f 18/3/1 16/3/1 17/3/1
f 22/1/1 20/1/1 19/1/1
f 23/4/1 21/4/1 20/4/1
f 23/1/1 20/1/1 22/1/1
f 24/4/1 21/4/1 23/4/1
f 27/3/1 26/3/1 25/3/1
f 28/3/1 26/3/1 27/3/1
f 31/2/1 30/2/1 29/2/1
f 32/2/1 30/2/1 31/2/1
f 33/3/1 32/3/1 31/3/1
f 34/3/1 32/3/1 33/3/1
f 39/3/1 36/3/1 35/3/1
f 40/3/1 36/3/1 39/3/1
f 43/3/1 38/3/1 37/3/1
f 44/3/1 38/3/1 43/3/1
f 45/2/1 42/2/1 41/2/1
f 46/2/1 42/2/1 45/2/1
f 49/3/1 48/3/1 47/3/1
f 50/3/1 48/3/1 49/3/1
f 51/3/2 52/3/2 53/3/2
f 53/3/2 52/3/2 54/3/2
f 55/3/2 56/3/2 59/3/2
f 59/3/2 56/3/2 60/3/2
f 57/3/2 58/3/2 63/3/2
f 63/3/2 58/3/2 64/3/2
f 61/2/2 62/2/2 65/2/2
f 65/2/2 62/2/2 66/2/2
f 67/2/2 68/2/2 69/2/2
f 69/2/2 68/2/2 70/2/2
f 69/3/2 70/3/2 71/3/2
f 71/3/2 70/3/2 72/3/2
f 73/1/2 74/1/2 76/1/2
f 74/4/2 75/4/2 77/4/2
f 76/1/2 74/1/2 77/1/2
f 77/4/2 75/4/2 78/4/2
f 79/3/2 80/3/2 81/3/2
f 81/3/2 80/3/2 82/3/2
f 83/1/2 84/1/2 85/1/2
f 85/1/2 84/1/2 86/1/2
f 87/3/2 88/3/2 89/3/2
f 89/3/2 88/3/2 90/3/2
f 91/1/2 92/1/2 94/1/2
f 92/4/2 93/4/2 95/4/2
f 94/1/2 92/1/2 95/1/2
f 95/4/2 93/4/2 96/4/2
f 97/3/2 98/3/2 99/3/2
f 99/3/2 98/3/2 100/3/2
f 103/1/3 102/1/3 101/1/3
f 106/1/3 103/1/3 101/1/3
f 106/1/3 104/1/3 103/1/3
f 107/1/3 106/1/3 105/1/3
f 108/1/3 104/1/3 106/1/3
f 108/1/3 106/1/3 107/1/3
f 109/1/3 104/1/3 108/1/3
f 110/1/3 104/1/3 109/1/3
f 111/1/3 109/1/3 108/1/3
f 112/1/3 109/1/3 111/1/3
f 115/3/3 114/3/3 113/3/3
f 116/3/3 114/3/3 115/3/3
f 117/3/3 114/3/3 116/3/3
f 118/3/3 114/3/3 117/3/3
f 120/3/3 119/3/3 118/3/3
f 120/3/3 118/3/3 117/3/3
f 121/3/3 119/3/3 120/3/3
f 122/3/3 120/3/3 117/3/3
f 125/3/3 122/3/3 117/3/3
f 125/3/3 123/3/3 122/3/3
f 126/3/3 123/3/3 125/3/3
f 127/3/3 123/3/3 126/3/3
f 128/3/3 125/3/3 124/3/3
f 128/3/3 126/3/3 125/3/3
f 129/3/3 126/3/3 128/3/3
f 130/3/3 126/3/3 129/3/3
f 135/2/3 132/2/3 131/2/3
f 136/3/3 135/3/3 134/3/3
f 137/2/3 132/2/3 135/2/3
f 137/3/3 135/3/3 136/3/3
f 138/2/3 132/2/3 137/2/3
f 139/3/3 133/3/3 132/3/3
f 139/2/3 132/2/3 138/2/3
f 140/3/3 133/3/3 139/3/3
f 143/2/3 142/2/3 141/2/3
f 144/2/3 142/2/3 143/2/3
f 147/3/3 146/3/3 145/3/3
f 148/3/3 146/3/3 147/3/3
f 151/3/3 150/3/3 149/3/3
f 152/3/3 150/3/3 151/3/3
f 153/2/4 154/2/4 155/2/4
f 155/2/4 154/2/4 156/2/4
f 157/2/4 158/2/4 161/2/4
f 160/3/4 161/3/4 162/3/4
f 161/2/4 158/2/4 163/2/4
f 162/3/4 161/3/4 163/3/4
f 163/2/4 158/2/4 164/2/4
f 158/3/4 159/3/4 165/3/4
f 164/2/4 158/2/4 165/2/4
f 165/3/4 159/3/4 166/3/4
f 167/3/4 168/3/4 169/3/4
f 169/3/4 168/3/4 170/3/4
f 171/3/4 172/3/4 173/3/4
f 173/3/4 172/3/4 174/3/4
f 175/3/4 176/3/4 177/3/4
f 177/3/4 176/3/4 178/3/4
f 179/3/4 180/3/4 181/3/4
f 181/3/4 180/3/4 182/3/4
f 183/3/4 184/3/4 186/3/4
f 185/4/4 186/4/4 188/4/4
f 187/4/4 188/4/4 189/4/4
f 188/4/4 186/4/4 190/4/4
f 189/4/4 188/4/4 190/4/4
f 190/4/4 186/4/4 191/4/4
f 186/3/4 184/3/4 192/3/4
f 191/4/4 186/4/4 192/4/4
f 192/3/4 184/3/4 193/3/4
f 193/3/4 184/3/4 194/3/4
f 197/1/5 196/1/5 195/1/5
f 198/1/5 196/1/5 197/1/5
f 199/4/5 198/4/5 197/4/5
f 200/4/5 198/4/5 199/4/5
f 205/1/5 202/1/5 201/1/5
f 206/1/5 202/1/5 205/1/5
f 207/1/5 204/1/5 203/1/5
f 208/1/5 204/1/5 207/1/5
f 209/4/5 206/4/5 205/4/5
f 210/4/5 206/4/5 209/4/5
f 211/4/5 208/4/5 207/4/5
f 212/4/5 208/4/5 211/4/5
f 217/3/5 214/3/5 213/3/5
f 218/3/5 214/3/5 217/3/5
f 219/3/5 216/3/5 215/3/5
f 220/3/5 216/3/5 219/3/5
f 223/3/5 222/3/5 221/3/5
f 224/3/5 222/3/5 223/3/5
f 225/1/6 226/1/6 229/1/6
f 229/1/6 226/1/6 230/1/6
f 227/1/6 228/1/6 231/1/6
f 231/1/6 228/1/6 232/1/6
f 233/1/6 234/1/6 235/1/6
f 235/1/6 234/1/6 236/1/6
f 239/3/6 240/3/6 243/3/6
f 243/3/6 240/3/6 244/3/6
f 237/3/6 238/3/6 247/3/6
f 245/3/6 246/3/6 248/3/6
f 248/3/6 246/3/6 249/3/6
f 241/3/6 242/3/6 250/3/6
f 237/3/6 247/3/6 251/3/6
f 249/3/6 250/3/6 251/3/6
f 248/3/6 249/3/6 251/3/6
f 247/3/6 248/3/6 251/3/6
f 250/3/6 242/3/6 252/3/6
f 251/3/6 250/3/6 252/3/6
f 253/3/6 254/3/6 257/3/6
f 257/3/6 254/3/6 258/3/6
f 255/3/6 256/3/6 259/3/6
f 259/3/6 256/3/6 260/3/6
f 261/3/6 262/3/6 263/3/6
f 263/3/6 262/3/6 264/3/6
f 253/3/6 257/3/6 265/3/6
f 260/3/6 256/3/6 268/3/6
f 265/3/6 266/3/6 269/3/6
f 253/3/6 265/3/6 269/3/6
f 269/3/6 266/3/6 270/3/6
f 267/3/6 268/3/6 271/3/6
f 268/3/6 256/3/6 271/3/6
f 271/3/6 256/3/6 272/3/6
f 253/3/6 269/3/6 273/3/6
f 270/3/6 266/3/6 274/3/6
f 267/3/6 271/3/6 275/3/6
f 272/3/6 256/3/6 276/3/6
f 253/3/6 273/3/6 277/3/6
f 273/3/6 274/3/6 277/3/6
f 274/3/6 266/3/6 278/3/6
f 277/3/6 274/3/6 278/3/6
f 275/3/6 276/3/6 279/3/6
f 267/3/6 275/3/6 279/3/6
f 276/3/6 256/3/6 280/3/6
f 279/3/6 276/3/6 280/3/6
f 281/3/6 282/3/6 285/3/6
f 285/3/6 282/3/6 286/3/6
f 283/3/6 284/3/6 287/3/6
f 287/3/6 284/3/6 288/3/6
f 289/3/6 290/3/6 291/3/6
f 291/3/6 290/3/6 292/3/6
