# MagicaVoxel @ ephtracy

# material
mtllib Torpedo.mtl
usemtl palette

# normals
vn -1 0 0
vn 1 0 0
vn 0 0 1
vn 0 0 -1
vn 0 -1 0
vn 0 1 0

# texcoords
vt 0.0644531 0.5
vt 0.306641 0.5
vt 0.958984 0.5

# verts
v -5.5 1 -17.5
v -5.5 1 -19.5
v -5.5 2 -17.5
v -5.5 2 -19.5
v -3.5 1 -10.5
v -3.5 1 -17.5
v -3.5 2 -10.5
v -3.5 2 -17.5
v -2.5 1 -7.5
v -2.5 1 -10.5
v -2.5 2 -7.5
v -2.5 2 -10.5
v -1.5 0 22.5
v -1.5 0 -18.5
v -1.5 1 -7.5
v -1.5 1 -18.5
v -1.5 2 -7.5
v -1.5 2 -18.5
v -1.5 3 22.5
v -1.5 3 -18.5
v -0.5 0 -18.5
v -0.5 0 -19.5
v -0.5 1 -18.5
v -0.5 1 -19.5
v -0.5 1 -22.5
v -0.5 2 -18.5
v -0.5 2 -19.5
v -0.5 2 -22.5
v -0.5 3 -18.5
v -0.5 3 -19.5
v 0.5 0 -18.5
v 0.5 0 -19.5
v 0.5 1 -18.5
v 0.5 1 -19.5
v 0.5 1 -22.5
v 0.5 2 -18.5
v 0.5 2 -19.5
v 0.5 2 -22.5
v 0.5 3 -18.5
v 0.5 3 -19.5
v 1.5 0 22.5
v 1.5 0 -18.5
v 1.5 1 -7.5
v 1.5 1 -18.5
v 1.5 2 -7.5
v 1.5 2 -18.5
v 1.5 3 22.5
v 1.5 3 -18.5
v 2.5 1 -7.5
v 2.5 1 -10.5
v 2.5 2 -7.5
v 2.5 2 -10.5
v 3.5 1 -10.5
v 3.5 1 -17.5
v 3.5 2 -10.5
v 3.5 2 -17.5
v 5.5 1 -17.5
v 5.5 1 -19.5
v 5.5 2 -17.5
v 5.5 2 -19.5
v -1.5 0 22.5
v -1.5 3 22.5
v 1.5 0 22.5
v 1.5 3 22.5
v -2.5 1 -7.5
v -2.5 2 -7.5
v -1.5 1 -7.5
v -1.5 2 -7.5
v 1.5 1 -7.5
v 1.5 2 -7.5
v 2.5 1 -7.5
v 2.5 2 -7.5
v -3.5 1 -10.5
v -3.5 2 -10.5
v -2.5 1 -10.5
v -2.5 2 -10.5
v 2.5 1 -10.5
v 2.5 2 -10.5
v 3.5 1 -10.5
v 3.5 2 -10.5
v -5.5 1 -17.5
v -5.5 2 -17.5
v -3.5 1 -17.5
v -3.5 2 -17.5
v 3.5 1 -17.5
v 3.5 2 -17.5
v 5.5 1 -17.5
v 5.5 2 -17.5
v -1.5 0 -18.5
v -1.5 1 -18.5
v -1.5 2 -18.5
v -1.5 3 -18.5
v -0.5 0 -18.5
v -0.5 1 -18.5
v -0.5 2 -18.5
v -0.5 3 -18.5
v 0.5 0 -18.5
v 0.5 1 -18.5
v 0.5 2 -18.5
v 0.5 3 -18.5
v 1.5 0 -18.5
v 1.5 1 -18.5
v 1.5 2 -18.5
v 1.5 3 -18.5
v -5.5 1 -19.5
v -5.5 2 -19.5
v -1.5 1 -19.5
v -1.5 2 -19.5
v -0.5 0 -19.5
v -0.5 1 -19.5
v -0.5 2 -19.5
v -0.5 3 -19.5
v 0.5 0 -19.5
v 0.5 1 -19.5
v 0.5 2 -19.5
v 0.5 3 -19.5
v 1.5 1 -19.5
v 1.5 2 -19.5
v 5.5 1 -19.5
v 5.5 2 -19.5
v -0.5 1 -22.5
v -0.5 2 -22.5
v 0.5 1 -22.5
v 0.5 2 -22.5
v -1.5 0 22.5
v 1.5 0 22.5
v -1.5 0 -18.5
v -0.5 0 -18.5
v 0.5 0 -18.5
v 1.5 0 -18.5
v -0.5 0 -19.5
v 0.5 0 -19.5
v -2.5 1 -7.5
v -1.5 1 -7.5
v 1.5 1 -7.5
v 2.5 1 -7.5
v -3.5 1 -10.5
v -2.5 1 -10.5
v 2.5 1 -10.5
v 3.5 1 -10.5
v -5.5 1 -17.5
v -3.5 1 -17.5
v 3.5 1 -17.5
v 5.5 1 -17.5
v -1.5 1 -18.5
v -0.5 1 -18.5
v 0.5 1 -18.5
v 1.5 1 -18.5
v -5.5 1 -19.5
v -1.5 1 -19.5
v -0.5 1 -19.5
v 0.5 1 -19.5
v 1.5 1 -19.5
v 5.5 1 -19.5
v -0.5 1 -22.5
v 0.5 1 -22.5
v -2.5 2 -7.5
v -1.5 2 -7.5
v 1.5 2 -7.5
v 2.5 2 -7.5
v -3.5 2 -10.5
v -2.5 2 -10.5
v 2.5 2 -10.5
v 3.5 2 -10.5
v -5.5 2 -17.5
v -3.5 2 -17.5
v 3.5 2 -17.5
v 5.5 2 -17.5
v -1.5 2 -18.5
v -0.5 2 -18.5
v 0.5 2 -18.5
v 1.5 2 -18.5
v -5.5 2 -19.5
v -1.5 2 -19.5
v -0.5 2 -19.5
v 0.5 2 -19.5
v 1.5 2 -19.5
v 5.5 2 -19.5
v -0.5 2 -22.5
v 0.5 2 -22.5
v -1.5 3 22.5
v 1.5 3 22.5
v -1.5 3 -18.5
v -0.5 3 -18.5
v 0.5 3 -18.5
v 1.5 3 -18.5
v -0.5 3 -19.5
v 0.5 3 -19.5

# faces
f 3/3/1 2/3/1 1/3/1
f 4/3/1 2/3/1 3/3/1
f 7/3/1 6/3/1 5/3/1
f 8/3/1 6/3/1 7/3/1
f 11/3/1 10/3/1 9/3/1
f 12/3/1 10/3/1 11/3/1
f 15/3/1 14/3/1 13/3/1
f 16/3/1 14/3/1 15/3/1
f 17/3/1 15/3/1 13/3/1
f 19/3/1 17/3/1 13/3/1
f 19/3/1 18/3/1 17/3/1
f 20/3/1 18/3/1 19/3/1
f 23/1/1 22/1/1 21/1/1
f 24/1/1 22/1/1 23/1/1
f 27/1/1 25/1/1 24/1/1
f 28/1/1 25/1/1 27/1/1
f 29/1/1 27/1/1 26/1/1
f 30/1/1 27/1/1 29/1/1
f 31/1/2 32/1/2 33/1/2
f 33/1/2 32/1/2 34/1/2
f 34/1/2 35/1/2 37/1/2
f 37/1/2 35/1/2 38/1/2
f 36/1/2 37/1/2 39/1/2
f 39/1/2 37/1/2 40/1/2
f 41/3/2 42/3/2 43/3/2
f 43/3/2 42/3/2 44/3/2
f 41/3/2 43/3/2 45/3/2
f 41/3/2 45/3/2 47/3/2
f 45/3/2 46/3/2 47/3/2
f 47/3/2 46/3/2 48/3/2
f 49/3/2 50/3/2 51/3/2
f 51/3/2 50/3/2 52/3/2
f 53/3/2 54/3/2 55/3/2
f 55/3/2 54/3/2 56/3/2
f 57/3/2 58/3/2 59/3/2
f 59/3/2 58/3/2 60/3/2
f 63/3/3 62/3/3 61/3/3
f 64/3/3 62/3/3 63/3/3
f 67/3/3 66/3/3 65/3/3
f 68/3/3 66/3/3 67/3/3
f 71/3/3 70/3/3 69/3/3
f 72/3/3 70/3/3 71/3/3
f 75/3/3 74/3/3 73/3/3
f 76/3/3 74/3/3 75/3/3
f 79/3/3 78/3/3 77/3/3
f 80/3/3 78/3/3 79/3/3
f 83/3/3 82/3/3 81/3/3
f 84/3/3 82/3/3 83/3/3
f 87/3/3 86/3/3 85/3/3
f 88/3/3 86/3/3 87/3/3
f 89/3/4 90/3/4 93/3/4
f 93/3/4 90/3/4 94/3/4
f 91/3/4 92/3/4 95/3/4
f 95/3/4 92/3/4 96/3/4
f 97/3/4 98/3/4 101/3/4
f 101/3/4 98/3/4 102/3/4
f 99/3/4 100/3/4 103/3/4
f 103/3/4 100/3/4 104/3/4
f 105/3/4 106/3/4 107/3/4
f 107/3/4 106/3/4 108/3/4
f 107/1/4 108/1/4 110/1/4
f 110/1/4 108/1/4 111/1/4
f 109/1/4 110/1/4 113/1/4
f 113/1/4 110/1/4 114/1/4
f 111/1/4 112/1/4 115/1/4
f 115/1/4 112/1/4 116/1/4
f 114/1/4 115/1/4 117/1/4
f 117/1/4 115/1/4 118/1/4
f 117/3/4 118/3/4 119/3/4
f 119/3/4 118/3/4 120/3/4
f 121/1/4 122/1/4 123/1/4
f 123/1/4 122/1/4 124/1/4
f 127/3/5 126/3/5 125/3/5
f 128/3/5 126/3/5 127/3/5
f 129/3/5 126/3/5 128/3/5
f 130/3/5 126/3/5 129/3/5
f 131/1/5 129/1/5 128/1/5
f 132/1/5 129/1/5 131/1/5
f 138/3/5 134/3/5 133/3/5
f 139/3/5 136/3/5 135/3/5
f 142/3/5 138/3/5 137/3/5
f 143/3/5 140/3/5 139/3/5
f 145/3/5 142/3/5 141/3/5
f 145/3/5 134/3/5 138/3/5
f 145/3/5 138/3/5 142/3/5
f 148/3/5 144/3/5 143/3/5
f 148/3/5 143/3/5 139/3/5
f 148/3/5 139/3/5 135/3/5
f 149/3/5 145/3/5 141/3/5
f 150/1/5 146/1/5 145/1/5
f 150/3/5 145/3/5 149/3/5
f 151/1/5 146/1/5 150/1/5
f 152/1/5 148/1/5 147/1/5
f 153/3/5 144/3/5 148/3/5
f 153/1/5 148/1/5 152/1/5
f 154/3/5 144/3/5 153/3/5
f 155/1/5 152/1/5 151/1/5
f 156/1/5 152/1/5 155/1/5
f 157/3/6 158/3/6 162/3/6
f 159/3/6 160/3/6 163/3/6
f 161/3/6 162/3/6 166/3/6
f 163/3/6 164/3/6 167/3/6
f 165/3/6 166/3/6 169/3/6
f 162/3/6 158/3/6 169/3/6
f 166/3/6 162/3/6 169/3/6
f 167/3/6 168/3/6 172/3/6
f 163/3/6 167/3/6 172/3/6
f 159/3/6 163/3/6 172/3/6
f 165/3/6 169/3/6 173/3/6
f 169/1/6 170/1/6 174/1/6
f 173/3/6 169/3/6 174/3/6
f 174/1/6 170/1/6 175/1/6
f 171/1/6 172/1/6 176/1/6
f 172/3/6 168/3/6 177/3/6
f 176/1/6 172/1/6 177/1/6
f 177/3/6 168/3/6 178/3/6
f 175/1/6 176/1/6 179/1/6
f 179/1/6 176/1/6 180/1/6
f 181/3/6 182/3/6 183/3/6
f 183/3/6 182/3/6 184/3/6
f 184/3/6 182/3/6 185/3/6
f 185/3/6 182/3/6 186/3/6
f 184/1/6 185/1/6 187/1/6
f 187/1/6 185/1/6 188/1/6
